<svg xmlns="http://www.w3.org/2000/svg" style="display:none"><symbol id="icon" viewBox="0 0 24 24"><path fill="currentColor" d="M12 3C8.323 3 5.17 5.27 3.826 8.5a.928.928 0 0 0 .483 1.21.904.904 0 0 0 1.191-.492C6.57 6.648 9.08 4.846 12 4.846c3.356 0 6.165 2.378 6.878 5.564.073.327.316.589.634.682a.9.9 0 0 0 .895-.234l1.326-1.346a.933.933 0 0 0 .001-1.305.9.9 0 0 0-1.286-.001l-.278.283C18.82 5.263 15.67 3 12 3ZM5.122 13.59a.917.917 0 0 0-.634-.682.9.9 0 0 0-.895.234l-1.326 1.346a.933.933 0 0 0-.001 1.306.9.9 0 0 0 1.286 0l.278-.283C5.18 18.737 8.328 21 12 21c3.676 0 6.829-2.27 8.174-5.5a.928.928 0 0 0-.483-1.21.904.904 0 0 0-1.191.492c-1.071 2.57-3.579 4.372-6.5 4.372-3.356 0-6.165-2.378-6.878-5.564Z"/><path fill="currentColor" fill-rule="evenodd" d="M16.82 9.23a.922.922 0 0 0-.634-.879.902.902 0 0 0-1.018.347l-3.174 4.561a.935.935 0 0 0-.064.957.907.907 0 0 0 .807.499H15v.054c0 .51.408.923.91.923s.909-.413.909-.923v-.097a.922.922 0 0 0 .634-.88.922.922 0 0 0-.634-.88V9.23Zm-2.328 3.639.51-.732v.732h-.51Z" clip-rule="evenodd"/><path fill="currentColor" d="M8.355 10.989c.05-.365.185-.542.31-.641.14-.11.365-.194.694-.194.39 0 .678.318.678.706 0 .195-.151.513-.847 1.144-.19.172-.428.372-.69.592-.527.444-1.153.971-1.692 1.524a.933.933 0 0 0-.192 1.005.909.909 0 0 0 .838.567h3.492c.502 0 .909-.413.909-.923a.916.916 0 0 0-.91-.923H9.868c.177-.15.354-.303.533-.465.654-.591 1.455-1.413 1.455-2.521 0-1.282-.982-2.552-2.496-2.552-.623 0-1.271.16-1.806.58-.549.43-.89 1.067-.999 1.843a.92.92 0 0 0 .773 1.043.912.912 0 0 0 1.028-.785Z"/></symbol></svg>