<svg xmlns="http://www.w3.org/2000/svg" width="103" height="20" fill="none" viewBox="0 0 103 20"><g clip-path="url(#clip0_8679_24053)"><path fill="#7E7EA6" d="M34.09 11.698c.14.353.218.736.218 1.138 0 1.762-1.487 3.19-3.321 3.19-1.835 0-3.322-1.428-3.322-3.19 0-1.763 1.487-3.19 3.322-3.19V5.67c-4.12 0-7.46 3.208-7.46 7.166 0 3.957 3.34 7.165 7.46 7.165s7.46-3.208 7.46-7.165c0-.9-.176-1.76-.49-2.553L34.09 11.7v-.002ZM37.956 10.282l1.224-.45c-1.224-3.221-4.426-5.528-8.194-5.564v1.4c3.183 0 5.9 1.916 6.97 4.614Z"/><path fill="#7E7EA6" d="M30.986 9.645v3.19l3.104-1.137c-.477-1.2-1.686-2.053-3.104-2.053Z"/><path fill="#AEAECA" d="m34.09 11.697 3.866-1.417c-1.07-2.695-3.787-4.613-6.97-4.613v3.975c1.417 0 2.628.853 3.104 2.053v.002Z"/><path fill="#7E7EA6" d="M0 19.241V.421C0 .17.176 0 .439 0h6.17c4.854 0 7.193 2.613 7.193 6.377 0 3.763-2.339 6.403-7.193 6.403H4.18v6.461c0 .253-.176.422-.439.422H.44c-.263 0-.439-.17-.439-.422ZM6.462 9.213c1.784 0 3.334-.59 3.334-2.838s-1.55-2.809-3.334-2.809h-2.28v5.645h2.28v.002ZM14.696 19.242V6.32c0-.253.177-.422.44-.422h2.955c.263 0 .409.112.439.449l.201 1.77c.497-1.462 1.403-2.444 3.1-2.444.672 0 1.276.072 1.553.225.218.12.263.309.263.562l-.239 2.472c0 .337-.222.476-.585.337a2.737 2.737 0 0 0-1.052-.202c-1.989 0-3.041 1.325-3.041 3.292v6.882c0 .252-.176.421-.44.421h-3.158c-.262 0-.439-.169-.439-.421h.003ZM50.279 19.382l-4.626-6.6H44.16v6.46c0 .253-.176.422-.439.422h-3.305c-.262 0-.439-.169-.439-.421V.422c0-.253.177-.422.44-.422h6.169c4.854 0 7.194 2.613 7.194 6.377 0 2.864-1.316 5.027-4.065 5.955l4.89 6.825c.205.308.058.506-.292.506h-3.51c-.234 0-.409-.085-.527-.281h.002Zm-3.837-10.17c1.784 0 3.334-.589 3.334-2.837s-1.55-2.809-3.334-2.809h-2.28v5.645h2.28v.002Z"/><path fill="#7E7EA6" d="M53.98 12.781c0-4.072 2.779-7.218 6.814-7.218 2.164 0 3.713.843 4.678 2.276l.058-1.517c0-.253.176-.422.439-.422h2.866c.263 0 .439.17.439.422v12.92c0 .253-.204.422-.467.422H65.97c-.262 0-.439-.169-.439-.421l-.058-1.517C64.48 19.129 62.93 20 60.795 20c-4.035 0-6.813-3.117-6.813-7.218l-.002-.002Zm7.661 3.68c2.135 0 3.626-1.461 3.626-3.68 0-2.218-1.491-3.679-3.626-3.679-2.134 0-3.714 1.489-3.714 3.68 0 2.19 1.58 3.679 3.714 3.679ZM79.533 12.781c0-4.072 2.778-7.218 6.813-7.218 2.165 0 3.714.843 4.679 2.276l.058-1.517c0-.253.176-.422.439-.422h2.866c.263 0 .439.17.439.422v12.92c0 .253-.205.422-.468.422h-2.836c-.263 0-.439-.169-.439-.421l-.058-1.517C90.032 19.129 88.482 20 86.348 20c-4.035 0-6.813-3.117-6.813-7.218l-.002-.002Zm7.663 3.68c2.134 0 3.626-1.461 3.626-3.68 0-2.218-1.492-3.679-3.626-3.679-2.135 0-3.715 1.489-3.715 3.68 0 2.19 1.58 3.679 3.715 3.679ZM72.455 15.814v-6.91H70.79c-.263 0-.44-.17-.44-.422V6.32c0-.252.177-.422.44-.422h1.664v-3.23c0-.253.176-.422.439-.422h3.187c.263 0 .439.17.439.422v3.23h2.25c.264 0 .44.17.44.422v2.162c0 .253-.176.422-.44.422h-2.25v6.488c0 .815.497 1.208 1.257 1.208.263 0 .36.012.712-.015.32-.028.527.112.527.393l.195 2.038c0 .647-1.461.814-2.427.814-2.281 0-4.328-1.01-4.328-4.016h-.001ZM95.95 4.267c-.058 0-.09-.037-.09-.092V.61h-.908c-.057 0-.089-.037-.089-.092V.091c0-.054.032-.091.09-.091h2.52c.058 0 .096.037.096.091v.427c0 .055-.038.092-.096.092h-.901v3.565c0 .055-.038.092-.096.092h-.527ZM98.444 4.267c-.057 0-.088-.037-.088-.092V.091c0-.054.031-.091.088-.091h.642c.05 0 .089.018.108.061l1.46 3.432L102.121.06c.019-.043.051-.061.102-.061h.641c.058 0 .096.037.096.091v4.084c0 .055-.038.092-.096.092h-.527c-.057 0-.089-.037-.089-.092V1.237l-1.238 2.957a.108.108 0 0 1-.108.073h-.489c-.051 0-.095-.025-.114-.073l-1.232-2.957v2.938c0 .055-.038.092-.095.092h-.528Z"/></g><defs><clipPath id="clip0_8679_24053"><path fill="#fff" d="M0 0h103v20H0z"/></clipPath></defs></svg>